HIERARCHY
ROOT Hips
{
  OFFSET 0 89.5177 0.535
  CHANNELS 6 Xposition Yposition Zposition Zrotation Xrotation Yrotation
  JOINT Spine
  {
    OFFSET 12.0259 -0.162855 1.69034e-005
    CHANNELS 3 Zrotation Xrotation Yrotation
    JOINT Spine1
    {
      OFFSET 15.3169 -0.0121922 0
      CHANNELS 3 Zrotation Xrotation Yrotation
      JOINT Spine2
      {
        OFFSET 15.3176 -0.0121908 0
        CHANNELS 3 Zrotation Xrotation Yrotation
        JOINT Neck
        {
          OFFSET 19.9142 1.56338 0
          CHANNELS 3 Zrotation Xrotation Yrotation
          JOINT Head
          {
            OFFSET 6.92651 0 0
            CHANNELS 3 Zrotation Xrotation Yrotation
            End Site
            {
              OFFSET 20.7666 0 0
            }
          }
          JOINT LeftShoulder
          {
            OFFSET -6.20654 0.708824 7.28219
            CHANNELS 3 Zrotation Xrotation Yrotation
            JOINT LeftArm
            {
              OFFSET 14.108 0 -1.52588e-005
              CHANNELS 3 Zrotation Xrotation Yrotation
              JOINT LeftForeArm
              {
                OFFSET 28.5802 0 0
                CHANNELS 3 Zrotation Xrotation Yrotation
                JOINT LeftHand
                {
                  OFFSET 27.092 0 0
                  CHANNELS 3 Zrotation Xrotation Yrotation
                  End Site
                  {
                    OFFSET 9.55928 -0.186424 0.145352
                  }
                }
              }
            }
          }
          JOINT RightShoulder
          {
            OFFSET -6.20654 0.708866 -7.28218
            CHANNELS 3 Zrotation Xrotation Yrotation
            JOINT RightArm
            {
              OFFSET 14.108 0 1.52588e-005
              CHANNELS 3 Zrotation Xrotation Yrotation
              JOINT RightForeArm
              {
                OFFSET 28.5802 0 0
                CHANNELS 3 Zrotation Xrotation Yrotation
                JOINT RightHand
                {
                  OFFSET 27.092 0 0
                  CHANNELS 3 Zrotation Xrotation Yrotation
                  End Site
                  {
                    OFFSET 9.55929 -0.186417 -0.145354
                  }
                }
              }
            }
          }
        }
      }
    }
  }
  JOINT LeftUpLeg
  {
    OFFSET 0.005 -0.535 8.837
    CHANNELS 3 Zrotation Xrotation Yrotation
    JOINT LeftLeg
    {
      OFFSET 39.9035 0 0
      CHANNELS 3 Zrotation Xrotation Yrotation
      JOINT LeftFoot
      {
        OFFSET 39.6689 0 0
        CHANNELS 3 Zrotation Xrotation Yrotation
        JOINT LeftToe
        {
          OFFSET 10.1624 13.6296 0
          CHANNELS 3 Zrotation Xrotation Yrotation
          End Site
          {
            OFFSET 8.38147 0 0
          }
        }
      }
    }
  }
  JOINT RightUpLeg
  {
    OFFSET 0.005 -0.535 -8.837
    CHANNELS 3 Zrotation Xrotation Yrotation
    JOINT RightLeg
    {
      OFFSET 39.9035 0 0
      CHANNELS 3 Zrotation Xrotation Yrotation
      JOINT RightFoot
      {
        OFFSET 39.6689 0 0
        CHANNELS 3 Zrotation Xrotation Yrotation
        JOINT RightToe
        {
          OFFSET 10.1624 13.6296 0
          CHANNELS 3 Zrotation Xrotation Yrotation
          End Site
          {
            OFFSET 8.38147 0 0
          }
        }
      }
    }
  }
}
MOTION
Frames:	9
Frame Time:	0.0333333
180.176 89.6594 -4.48102 174.264 -85.9935 85.443 -0.0806061 -1.51044 -1.16429 -0.191998 -3.01845 -2.33176 -0.191999 -3.01845 -2.33176 -8.30987e-012 -9.0191e-006 -5.27751e-005 12.3332 -3.15106 3.04297 -178.552 -30.7363 -87.168 -26.8735 -46.0884 4.08296 -10.0633 -1.59028e-014 -1.59028e-015 -29.2603 -52.8865 -32.562 -178.747 22.9737 86.7927 -33.8262 38.8951 1.22467 -6.78763 -6.36111e-015 -1.59028e-015 -65.2223 68.11 68.3822 -2.25773 14.195 -177.963 -6.8343 0 3.97569e-016 9.52164 5.16692 -7.73663 90 7.45443e-016 -0 -5.02394 -11.5208 175.27 -7.62316 -3.18056e-015 -9.93923e-016 8.01625 -3.36297 5.02799 90 -1.49089e-016 -4.77083e-015 
180.187 89.6574 -4.49124 174.072 -85.9931 85.2503 -0.0782518 -1.51164 -1.16175 -0.187245 -3.02092 -2.3266 -0.187246 -3.02092 -2.32661 -8.30748e-012 -9.0191e-006 -5.27751e-005 12.4015 -3.1435 3.02426 -178.53 -30.7508 -87.1261 -26.9562 -46.2046 4.09616 -9.98419 -1.27222e-014 -3.18055e-015 -29.2417 -52.8673 -32.5395 -178.742 22.9773 86.7802 -33.8242 38.7603 1.21787 -6.77649 -6.36111e-015 1.59028e-015 -65.174 68.1472 68.3296 -2.25705 14.1561 -177.957 -6.84115 -1.59028e-015 -3.97569e-016 9.51799 5.14684 -7.70652 90 1.54058e-015 -1.59028e-015 -5.04737 -11.5389 175.268 -7.68616 -3.18056e-015 9.93923e-016 8.04959 -3.38222 5.0565 90 -4.96962e-017 1.59028e-015 
180.196 89.6556 -4.50732 173.969 -85.9823 85.1486 -0.0822819 -1.51355 -1.16125 -0.190328 -3.02355 -2.32691 -0.190328 -3.02355 -2.32692 -8.30748e-012 -9.0191e-006 -5.27751e-005 12.5016 -3.14884 3.03728 -178.53 -30.7479 -87.1265 -27.0093 -46.2562 4.14845 -9.90979 -3.18055e-015 3.18055e-015 -29.0936 -52.912 -32.3911 -178.741 22.9463 86.7736 -33.6939 38.6725 1.11762 -6.83933 -1.59028e-014 -7.95139e-016 -65.2274 68.1546 68.3792 -2.2568 14.1432 -177.95 -6.8331 -1.59028e-015 -3.97569e-016 9.51262 5.14474 -7.70339 90 1.14301e-015 -0 -5.02772 -11.5685 175.278 -7.64717 -1.59028e-015 -1.98785e-016 8.05929 -3.37586 5.04728 90 -2.73329e-016 1.59028e-015 
180.205 89.6537 -4.5299 173.954 -85.9678 85.1358 -0.086321 -1.51577 -1.16086 -0.203412 -3.02629 -2.32464 -0.203412 -3.02629 -2.32464 -8.30828e-012 -9.0191e-006 -5.27751e-005 12.6611 -3.17065 3.03757 -178.522 -30.7096 -87.1067 -26.9477 -46.2606 4.24585 -9.9291 3.18055e-015 1.59028e-015 -29.2211 -52.8939 -32.522 -178.737 22.9373 86.7627 -33.6584 38.7356 1.04405 -6.83914 6.36111e-015 7.95139e-016 -65.1635 68.2183 68.3099 -2.24333 14.1564 -177.949 -6.8066 -1.59028e-015 -0 9.51036 5.15614 -7.7205 90 -7.95139e-016 -0 -5.01193 -11.5718 175.286 -7.62031 0 -3.97569e-016 8.07131 -3.37206 5.04178 90 -9.93923e-017 4.77083e-015 
180.212 89.6523 -4.54515 173.932 -85.9556 85.1161 -0.0862689 -1.51811 -1.16055 -0.203201 -3.029 -2.3204 -0.203201 -3.029 -2.32041 -8.30907e-012 -9.0191e-006 -5.27751e-005 12.7203 -3.20431 3.00807 -178.527 -30.6732 -87.1134 -26.8038 -46.1254 4.42664 -10.0081 6.36111e-015 3.18055e-015 -29.05 -52.8972 -32.3432 -178.733 22.9155 86.7482 -33.5865 38.7665 0.977642 -6.84465 -3.18055e-015 -1.59028e-015 -65.1773 68.1892 68.327 -2.26399 14.1437 -177.939 -6.84225 1.59028e-015 3.97569e-016 9.52862 5.14405 -7.70243 90 8.44835e-016 -1.59028e-015 -5.01535 -11.5294 175.296 -7.63797 0 7.95139e-016 8.08094 -3.34025 4.9948 90 -2.73329e-016 -0 
180.221 89.6512 -4.55214 173.894 -85.9628 85.0787 -0.0721147 -1.52041 -1.16029 -0.174736 -3.0315 -2.31813 -0.174737 -3.0315 -2.31814 -8.30907e-012 -9.0191e-006 -5.27751e-005 12.6449 -3.20377 2.9721 -178.523 -30.6308 -87.1036 -26.6479 -46.2229 4.59062 -10.0547 -3.18055e-015 -1.59028e-015 -29.1497 -52.8954 -32.4473 -178.718 22.8946 86.7077 -33.5113 38.7731 0.915595 -6.859 -3.18055e-015 -7.95139e-016 -65.2027 68.2006 68.3495 -2.26427 14.1114 -177.936 -6.86559 -1.59028e-015 -7.95139e-016 9.53715 5.12672 -7.67645 90 0 -0 -5.03521 -11.5189 175.295 -7.70562 1.59028e-015 -3.97569e-016 8.10534 -3.33893 4.99277 90 -3.47873e-016 -1.59028e-015 
180.231 89.6502 -4.55853 173.91 -85.9518 85.0954 -0.0646098 -1.5225 -1.16005 -0.159655 -3.03367 -2.31842 -0.159655 -3.03367 -2.31843 -8.30907e-012 -9.0191e-006 -5.27751e-005 12.5661 -3.20591 2.99509 -178.52 -30.6365 -87.097 -26.6758 -46.3065 4.66848 -9.86767 9.54166e-015 3.18055e-015 -28.9934 -52.8849 -32.282 -178.711 22.8777 86.6886 -33.4382 38.7658 0.819918 -6.79383 6.36111e-015 2.38542e-015 -65.1493 68.1955 68.2996 -2.2923 14.1447 -177.924 -6.89866 -1.59028e-015 -0 9.54722 5.14495 -7.70368 90 -1.54058e-015 -0 -5.0522 -11.4873 175.298 -7.73407 4.77083e-015 1.98785e-016 8.10106 -3.30956 4.94933 90 -2.48481e-017 -4.77083e-015 
180.242 89.6487 -4.56198 174.135 -85.8917 85.3075 -0.0758431 -1.5242 -1.1598 -0.182248 -3.03431 -2.31909 -0.182248 -3.03431 -2.3191 -8.30589e-012 -9.0191e-006 -5.27751e-005 12.6192 -3.25503 2.99124 -178.491 -30.6358 -87.0414 -26.7435 -46.2188 4.6825 -9.75538 6.36111e-015 3.18055e-015 -29.0651 -52.8245 -32.348 -178.696 22.8587 86.6471 -33.3776 38.6833 0.732691 -6.74335 -1.59028e-014 -0 -65.1321 68.203 68.2823 -2.34306 14.1229 -177.911 -6.88157 3.18055e-015 7.95139e-016 9.54677 5.1277 -7.67795 90 4.96962e-016 -1.59028e-015 -5.1035 -11.5208 175.315 -7.7156 -3.18056e-015 5.96354e-016 8.10136 -3.34778 5.00579 90 4.96962e-017 1.59028e-015 
180.251 89.6476 -4.57521 174.45 -85.8469 85.6205 -0.0799391 -1.52535 -1.15951 -0.190522 -3.036 -2.3199 -0.190523 -3.036 -2.31991 -8.30669e-012 -9.0191e-006 -5.27751e-005 12.7186 -3.29972 3.02224 -178.5 -30.5849 -87.0528 -26.4856 -46.3366 4.97861 -9.88884 -6.36111e-015 -1.59028e-015 -29.0084 -52.8895 -32.2985 -178.669 22.7956 86.5692 -33.1388 38.6447 0.527706 -6.90154 -3.18055e-015 -1.59028e-015 -65.1746 68.1931 68.3236 -2.37208 14.1629 -177.902 -6.86542 3.18055e-015 3.97569e-016 9.5526 5.14215 -7.69969 90 1.3418e-015 -0 -5.1269 -11.5514 175.322 -7.67825 -6.36111e-015 1.98785e-016 8.09502 -3.38883 5.0665 90 -9.93923e-017 3.18055e-015 
